<!-- Created with Inkscape (http://www.inkscape.org/) -->
<svg width="64" height="64" version="1.1" viewBox="0 0 64 64" xmlns="http://www.w3.org/2000/svg">
 <g transform="matrix(1.2173913,0,0,1.2212766,2.7826088,2.7787234)">
  <rect x="1" y="1.8188154" width="46" height="45.853661" ry="1.9936373" style="fill-opacity:.2"/>
  <rect x="1" y="1" width="46" height="45.853661" ry="1.9936373" style="fill:#3f3f3f"/>
  <path d="m2.9942103 1c-1.1044751 0-1.9942104 0.889788-1.9942104 1.9942631v0.8188153c0-1.104475 0.88973528-1.9942631 1.9942104-1.9942631h42.01158c1.104475 0 1.99421 0.8897881 1.99421 1.9942631v-0.8188153c0-1.1044751-0.889735-1.9942631-1.99421-1.9942631h-42.01158z" style="fill-opacity:.2;fill:#ffffff"/>
 </g>
 <g transform="matrix(2.1644606,0,0,2.17143,-14.316637,-31.901406)">
  <path d="m15.996692 20.217739c-0.548727 0.0023-1.063688 1.148826-1.383804 3.080736-0.215613-1.226856-0.543624-1.942423-0.890701-1.943097-0.628136 0-1.137318 2.297088-1.137252 5.130489 6.8e-5 2.832967 0.509213 5.129376 1.137252 5.129376 0.256952-2.62e-4 0.506312-0.393028 0.707451-1.114308 0.266961 2.727139 0.883632 4.500396 1.567054 4.506116 0.31201-0.0041 0.617779-0.379221 0.884037-1.084312 0.319534 2.105296 0.837759 3.357414 1.390468 3.359593 0.34736-7.3e-4 0.686393-0.496469 0.971772-1.420941 0.468346 2.298223 1.281294 3.692983 2.155671 3.698441 0.874472-6.79e-4 1.688279-1.391284 2.157893-3.687329 0.285033 0.918519 0.623204 1.410256 0.969553 1.409829 0.553013 1.1e-5 1.071714-1.251427 1.391579-3.35737 0.265989 0.703464 0.571342 1.077699 0.882925 1.082089 0.685405-0.0054 1.303499-1.788596 1.569276-4.527224 0.200474 0.718489 0.448979 1.111141 0.705231 1.114308 0.628086 0 1.137249-2.292024 1.137249-5.119378 0-2.827355-0.509163-5.119379-1.137249-5.119379-0.346841 0.0031-0.674396 0.718639-0.889589 1.943097-0.320345-1.933289-0.8358-3.079909-1.384918-3.080736-0.497665 0.0027-0.970242 0.947395-1.293846 2.586352-0.287169-0.942422-0.629628-1.448329-0.980658-1.448713-0.620644 0.0039-1.191862 1.58117-1.491533 4.118389-0.459404-1.19023-1.038181-1.842315-1.635913-1.84311-0.597142 0.0036-1.175067 0.657239-1.633689 1.847554-0.299806-2.542185-0.872114-4.121775-1.493754-4.122833-0.3506 8e-4 -0.692631 0.505877-0.979547 1.446491-0.323952-1.639407-0.796984-2.58336-1.294958-2.58413zm-4.833323 3.412918c-0.471066-1e-6 -0.85294 1.146012-0.85294 2.559689 0 1.413679 0.381874 2.55969 0.85294 2.559689 0.471066 0 0.852939-1.146011 0.852939-2.559689 0-1.413675-0.381873-2.559689-0.852939-2.559689zm20.470544 0c-0.471066 0-0.852937 1.146013-0.852937 2.559689 0 1.413678 0.381871 2.559689 0.852937 2.559689 0.471068 2e-6 0.852942-1.14601 0.852942-2.559689 0-1.413677-0.381874-2.559691-0.852942-2.559689z" style="fill-opacity:.2"/>
  <path d="m15.996692 19.757213c-0.548727 0.0023-1.063688 1.148826-1.383804 3.080736-0.215613-1.226856-0.543624-1.942423-0.890701-1.943097-0.628136 0-1.137318 2.297088-1.137252 5.130489 6.8e-5 2.832967 0.509213 5.129376 1.137252 5.129376 0.256952-2.62e-4 0.506312-0.393028 0.707451-1.114308 0.266961 2.727139 0.883632 4.500396 1.567054 4.506116 0.31201-0.0041 0.617779-0.379221 0.884037-1.084312 0.319534 2.105296 0.837759 3.357414 1.390468 3.359593 0.34736-7.3e-4 0.686393-0.496469 0.971772-1.420941 0.468346 2.298223 1.281294 3.692983 2.155671 3.698441 0.874472-6.79e-4 1.688279-1.391284 2.157893-3.687329 0.285033 0.918519 0.623204 1.410256 0.969553 1.409829 0.553013 1.1e-5 1.071714-1.251427 1.391579-3.35737 0.265989 0.703464 0.571342 1.077699 0.882925 1.082089 0.685405-0.0054 1.303499-1.788596 1.569276-4.527224 0.200474 0.718489 0.448979 1.111141 0.705231 1.114308 0.628086 0 1.137249-2.292024 1.137249-5.119378 0-2.827355-0.509163-5.119379-1.137249-5.119379-0.346841 0.0031-0.674396 0.718639-0.889589 1.943097-0.320345-1.933289-0.8358-3.079909-1.384918-3.080736-0.497665 0.0027-0.970242 0.947395-1.293846 2.586352-0.287169-0.942422-0.629628-1.448329-0.980658-1.448713-0.620644 0.0039-1.191862 1.58117-1.491533 4.118389-0.459404-1.19023-1.038181-1.842315-1.635913-1.84311-0.597142 0.0036-1.175067 0.657239-1.633689 1.847554-0.299806-2.542185-0.872114-4.121775-1.493754-4.122833-0.3506 8e-4 -0.692631 0.505877-0.979547 1.446491-0.323952-1.639407-0.796984-2.58336-1.294958-2.58413zm-4.833323 3.412918c-0.471066-1e-6 -0.85294 1.146012-0.85294 2.559689 0 1.413679 0.381874 2.55969 0.85294 2.559689 0.471066 0 0.852939-1.146011 0.852939-2.559689 0-1.413675-0.381873-2.559689-0.852939-2.559689zm20.470544 0c-0.471066 0-0.852937 1.146013-0.852937 2.559689 0 1.413678 0.381871 2.559689 0.852937 2.559689 0.471068 2e-6 0.852942-1.14601 0.852942-2.559689 0-1.413677-0.381874-2.559691-0.852942-2.559689z" style="fill:#8d51c9"/>
  <path d="m15.996261 19.757213c-0.548727 0.0023-1.063203 1.140002-1.383319 3.056647-0.215613-1.217161-0.543553-1.92693-0.89063-1.927599-0.628136 0-1.137041 2.278635-1.136975 5.089648 1e-6 0.07835 0.0046 0.151187 0.0054 0.228668 0.02724-2.702498 0.520934-4.86098 1.131561-4.86098 0.347077 6.68e-4 0.675017 0.710437 0.89063 1.927599 0.320116-1.916645 0.834592-3.054363 1.383319-3.056647 0.497974 7.64e-4 0.971839 0.937129 1.295791 2.563582 0.286916-0.933181 0.628462-1.43374 0.979062-1.434534 0.62164 1e-3 1.193601 1.568021 1.493407 4.090119 0.458622-1.180909 1.037034-1.829341 1.634176-1.832916 0.597732 7.89e-4 1.176577 0.647624 1.635981 1.82845 0.299671-2.517172 0.870959-4.08178 1.491603-4.085653 0.35103 3.81e-4 0.693697 0.502238 0.980866 1.437214 0.323604-1.626007 0.795419-2.563581 1.293084-2.566262 0.549118 8.2e-4 1.064779 1.138633 1.385124 3.056647 0.215193-1.214783 0.542887-1.92452 0.889728-1.927599 0.610547 0 1.104215 2.153728 1.131561 4.850261 7.87e-4 -0.07753 0.0054-0.150272 0.0054-0.228668 0-2.805015-0.508889-5.078929-1.136975-5.078929-0.346841 0.0031-0.674535 0.712816-0.889728 1.927599-0.320345-1.918014-0.836006-3.055827-1.385124-3.056647-0.497665 0.0027-0.96948 0.940255-1.293084 2.566262-0.287169-0.934976-0.629836-1.436832-0.980866-1.437214-0.620644 0.0039-1.191932 1.568481-1.491603 4.085653-0.459404-1.180825-1.038249-1.82766-1.635981-1.82845-0.597142 0.0036-1.175554 0.652007-1.634176 1.832917-0.299806-2.522099-0.871767-4.08907-1.493407-4.09012-0.3506 7.94e-4 -0.692146 0.501353-0.979062 1.434535-0.323952-1.626454-0.797817-2.562819-1.295791-2.563583zm-4.833045 3.386251c-0.471066-1e-6 -0.852732 1.136956-0.852732 2.539464 0 0.07832 0.0049 0.152156 0.0072 0.228668 0.03941-1.293619 0.400752-2.310797 0.845513-2.310796 0.44476 0 0.806105 1.017178 0.845512 2.310796 0.0023-0.07651 0.0072-0.150347 0.0072-0.228668 0-1.402506-0.381665-2.539464-0.852731-2.539464zm20.470963 0c-0.471066 0-0.853634 1.136957-0.853634 2.539464 0 0.07833 0.0058 0.152151 0.0081 0.228668 0.03941-1.293611 0.400753-2.310796 0.845512-2.310796 0.444762-2e-6 0.806106 1.017177 0.845512 2.310796 0.0023-0.07651 0.0072-0.150347 0.0072-0.228668 0-1.402508-0.381663-2.539466-0.852731-2.539464z" style="fill-opacity:.2;fill:#ffffff"/>
 </g>
</svg>
