<!-- Created with Inkscape (http://www.inkscape.org/) -->
<svg width="48" height="48" version="1.1" viewBox="0 0 48 48" xmlns="http://www.w3.org/2000/svg">
 <g transform="matrix(.86956522 0 0 .87234042 3.1304348 3.1276596)">
  <rect x="1" y="2" width="46" height="46" ry="2" style="fill-opacity:.2"/>
  <rect x="1" y="1" width="46" height="45.853661" ry="1.9936373" style="fill:#3f3f3f"/>
  <path d="m2.9990234 0.99999996c-1.108 0-1.9990234 0.89087694-1.9990234 1.9988769v1.175c0-1.108 0.89102342-1.9988769 1.9990234-1.9988769h42.001953c1.108 0 1.999024 0.8908769 1.999024 1.9988769v-1.175c0-1.108-0.891024-1.9988769-1.999024-1.9988769z" style="fill-opacity:.2;fill:#ffffff"/>
 </g>
 <g transform="matrix(1.5460433,0,0,1.5510215,-9.0833122,-21.643861)">
  <path d="m16.041762 20.420871a1.6916627 7.3874227 0 0 0-1.372274 3.077721 1.1277748 5.1249128 0 0 0-0.883277-1.941196 1.1277748 5.1249128 0 0 0-1.127775 5.125469 1.1277748 5.1249128 0 0 0 1.127775 5.124357 1.1277748 5.1249128 0 0 0 0.701556-1.113217 1.6916627 7.3874227 0 0 0 1.553995 4.50171 1.6916627 7.3874227 0 0 0 0.876668-1.083253 1.6916627 7.9556847 0 0 0 1.378881 3.356305 1.6916627 7.9556847 0 0 0 0.963675-1.419549 2.5374937 7.9566556 0 0 0 2.137707 3.694821 2.5374937 7.9566556 0 0 0 2.139909-3.68372 1.6916627 7.9556858 0 0 0 0.961473 1.408448 1.6916627 7.9556858 0 0 0 1.379982-3.354084 1.6916627 7.3874218 0 0 0 0.875567 1.081032 1.6916627 7.3874218 0 0 0 1.556198-4.5228 1.1277748 5.114369 0 0 0 0.699353 1.11322 1.1277748 5.114369 0 0 0 1.127775-5.114369 1.1277748 5.114369 0 0 0-1.127775-5.11437 1.1277748 5.114369 0 0 0-0.882176 1.941196 1.6916627 7.3874218 0 0 0-1.373375-3.077721 1.6916627 7.3874218 0 0 0-1.283064 2.583821 1.6916627 7.9556858 0 0 0-0.972485-1.447296 1.6916627 7.9556858 0 0 0-1.479104 4.11436 2.5374937 7.9566556 0 0 0-1.622278-1.841307 2.5374937 7.9566556 0 0 0-1.620076 1.845746 1.6916627 7.9556847 0 0 0-1.481306-4.118799 1.6916627 7.9556847 0 0 0-0.971384 1.445076 1.6916627 7.3874227 0 0 0-1.284165-2.581601zm-4.793044 3.409578a0.84583109 2.557185 0 0 0-0.845832 2.557185 0.84583109 2.557185 0 0 0 0.845832 2.557185 0.84583109 2.557185 0 0 0 0.845831-2.557185 0.84583109 2.557185 0 0 0-0.845831-2.557185zm20.29995 0a0.84583074 2.5571841 0 0 0-0.845831 2.557185 0.84583074 2.5571841 0 0 0 0.845831 2.557185 0.84583074 2.5571841 0 0 0 0.845832-2.557185 0.84583074 2.5571841 0 0 0-0.845832-2.557185z" style="fill-opacity:.2"/>
  <path d="m16.041763 19.754555c-0.544154 0.0023-1.054823 1.147702-1.372273 3.077722-0.213816-1.225656-0.539092-1.940523-0.883277-1.941196-0.622901 0-1.127842 2.29484-1.127776 5.125469 6.8e-5 2.830195 0.50497 5.124358 1.127776 5.124358 0.254811-2.61e-4 0.502093-0.392644 0.701555-1.113218 0.264736 2.724471 0.876268 4.495993 1.553995 4.501707 0.309409-0.0041 0.612631-0.37885 0.87667-1.083251 0.316871 2.103236 0.830779 3.354129 1.37888 3.356306 0.344466-7.29e-4 0.680674-0.495983 0.963676-1.419551 0.464441 2.295974 1.270616 3.68937 2.137706 3.694822 0.867185-6.78e-4 1.67421-1.389922 2.139911-3.683721 0.282657 0.91762 0.618011 1.408876 0.961474 1.40845 0.548404 1.1e-5 1.062781-1.250203 1.379982-3.354085 0.263771 0.702775 0.56658 1.076644 0.875567 1.08103 0.679693-0.0054 1.292635-1.786846 1.556198-4.522795 0.198804 0.717786 0.445237 1.110054 0.699354 1.113218 0.622852 0 1.127773-2.289781 1.127773-5.114369 0-2.824589-0.504921-5.11437-1.127773-5.11437-0.34395 0.0031-0.668775 0.717936-0.882175 1.941196-0.317677-1.931398-0.828836-3.076896-1.373377-3.077722-0.493519 0.0027-0.962158 0.946468-1.283064 2.583821-0.284777-0.941499-0.624382-1.446911-0.972485-1.447295-0.615474 0.0039-1.18193 1.579623-1.479105 4.114359-0.455576-1.189065-1.02953-1.840511-1.62228-1.841306-0.592166 0.0036-1.165276 0.656596-1.620075 1.845746-0.297308-2.539698-0.864845-4.117742-1.481307-4.118799-0.347677 7.99e-4 -0.686858 0.505382-0.971383 1.445076-0.321252-1.637803-0.790343-2.580833-1.284167-2.581602zm-4.793045 3.409579c-0.46714-1e-6 -0.845832 1.14489-0.845832 2.557185s0.378692 2.557185 0.845832 2.557184c0.46714 0 0.845831-1.14489 0.845831-2.557184 0-1.412293-0.378691-2.557185-0.845831-2.557185zm20.299956 0c-0.46714 0-0.845829 1.144891-0.845829 2.557185s0.378689 2.557184 0.845829 2.557184c0.467142 2e-6 0.845834-1.144889 0.845834-2.557184s-0.378692-2.557187-0.845834-2.557185z" style="fill:#8d51c9"/>
  <path d="m16.041764 19.754555a1.6916633 7.3879499 0 0 0-1.372274 3.078296 1.1277752 5.1252786 0 0 0-0.883277-1.941557 1.1277752 5.1252786 0 0 0-1.127775 5.125312 1.1277752 5.1252786 0 0 0 0.0066 0.284185 1.1277752 5.1252786 0 0 1 1.121168-4.841128 1.1277752 5.1252786 0 0 1 0.883277 1.941557 1.6916633 7.3879499 0 0 1 1.372274-3.078296 1.6916633 7.3879499 0 0 1 1.284166 2.582082 1.6916633 7.9562524 0 0 1 0.971384-1.445343 1.6916633 7.9562524 0 0 1 1.481307 4.118455 2.5374946 7.9572233 0 0 1 1.620076-1.844979 2.5374946 7.9572233 0 0 1 1.622279 1.840538 1.6916633 7.9562534 0 0 1 1.479103-4.114014 1.6916633 7.9562534 0 0 1 0.972487 1.447564 1.6916633 7.387949 0 0 1 1.283064-2.584303 1.6916633 7.387949 0 0 1 1.373376 3.078296 1.1277752 5.1147341 0 0 1 0.882175-1.941557 1.1277752 5.1147341 0 0 1 1.125572 4.830024 1.1277752 5.1147341 0 0 0 0.0022-0.284182 1.1277752 5.1147341 0 0 0-1.127775-5.114211 1.1277752 5.1147341 0 0 0-0.882175 1.941557 1.6916633 7.387949 0 0 0-1.373376-3.078296 1.6916633 7.387949 0 0 0-1.283064 2.584303 1.6916633 7.9562534 0 0 0-0.972487-1.447564 1.6916633 7.9562534 0 0 0-1.479103 4.114013 2.5374946 7.9572233 0 0 0-1.622279-1.840539 2.5374946 7.9572233 0 0 0-1.620076 1.844981 1.6916633 7.9562524 0 0 0-1.481307-4.118455 1.6916633 7.9562524 0 0 0-0.971384 1.445344 1.6916633 7.3879499 0 0 0-1.284166-2.582083zm-4.793046 3.410213a0.84583139 2.5573673 0 0 0-0.845832 2.556551 0.84583139 2.5573673 0 0 0 0.01211 0.284186 0.84583139 2.5573673 0 0 1 0.833718-2.272366 0.84583139 2.5573673 0 0 1 0.835919 2.204649 0.84583139 2.5573673 0 0 0 0.0099-0.216469 0.84583139 2.5573673 0 0 0-0.845831-2.556551zm20.299957 0a0.84583104 2.5573665 0 0 0-0.845831 2.556551 0.84583104 2.5573665 0 0 0 0.01212 0.284186 0.84583104 2.5573665 0 0 1 0.833716-2.272366 0.84583104 2.5573665 0 0 1 0.83592 2.204649 0.84583104 2.5573665 0 0 0 0.0099-0.216469 0.84583104 2.5573665 0 0 0-0.845833-2.556551z" style="fill-opacity:.2;fill:#ffffff"/>
 </g>
</svg>
