<!-- Created with Inkscape (http://www.inkscape.org/) -->
<svg width="32" height="32" version="1.1" viewBox="0 0 32 32" xmlns="http://www.w3.org/2000/svg">
 <g transform="matrix(.60869565 0 0 .61063829 1.3913044 1.3893617)">
  <rect x="1" y="2" width="46" height="46.491291" ry="2.0213604" style="fill-opacity:.2"/>
  <rect x="1" y="1" width="46" height="45.853661" ry="1.9936373" style="fill:#3f3f3f"/>
  <path d="m2.992606 1c-1.1044751 0-1.9926061 0.8881888-1.9926061 1.9926639v1.6376307c0-1.1044751 0.88813098-1.9926639 1.9926061-1.9926639h42.014788c1.104475 0 1.992606 0.8881888 1.992606 1.9926639v-1.6376307c0-1.1044751-0.888131-1.9926639-1.992606-1.9926639z" style="fill-opacity:.2;fill:#ffffff"/>
 </g>
 <g transform="matrix(1.0822303,0,0,1.085715,-7.1583185,-15.950703)">
  <path d="m15.996692 20.678265c-0.548727 0.0023-1.063688 1.147699-1.383804 3.077714-0.215613-1.225652-0.543624-1.940518-0.890701-1.941191-0.628136 0-1.137318 2.294835-1.137252 5.125457 6.8e-5 2.830188 0.509213 5.124344 1.137252 5.124344 0.256952-2.61e-4 0.506312-0.392642 0.707451-1.113215 0.266961 2.724464 0.883632 4.495982 1.567054 4.501696 0.31201-0.0041 0.617779-0.378849 0.884037-1.083248 0.319534 2.103231 0.837759 3.354121 1.390468 3.356297 0.34736-7.29e-4 0.686393-0.495982 0.971772-1.419547 0.468346 2.295969 1.281294 3.689361 2.155671 3.694813 0.874472-6.78e-4 1.688279-1.389919 2.157893-3.683712 0.285033 0.917618 0.623204 1.408873 0.969553 1.408446 0.553013 1.1e-5 1.071714-1.250199 1.391579-3.354076 0.265989 0.702774 0.571342 1.076642 0.882925 1.081027 0.685405-0.0054 1.303499-1.786841 1.569276-4.522783 0.200474 0.717784 0.448979 1.110051 0.705231 1.113215 0.628086 0 1.137249-2.289776 1.137249-5.114356 0-2.824582-0.509163-5.114358-1.137249-5.114358-0.346841 0.0031-0.674396 0.717934-0.889589 1.941191-0.320345-1.931393-0.8358-3.076888-1.384918-3.077714-0.497665 0.0027-0.970242 0.946466-1.293846 2.583815-0.287169-0.941498-0.629628-1.446908-0.980658-1.447292-0.620644 0.0039-1.191862 1.579619-1.491533 4.114349-0.459404-1.189062-1.038181-1.840507-1.635913-1.841302-0.597142 0.0036-1.175067 0.656595-1.633689 1.845742-0.299806-2.539691-0.872114-4.117732-1.493754-4.118789-0.3506 7.99e-4 -0.692631 0.505381-0.979547 1.445072-0.323952-1.637799-0.796984-2.580826-1.294958-2.581595zm-4.833323 3.40957c-0.471066-1e-6 -0.85294 1.144888-0.85294 2.557179 0 1.412292 0.381874 2.557179 0.85294 2.557178 0.471066 0 0.852939-1.144887 0.852939-2.557178 0-1.412289-0.381873-2.557179-0.852939-2.557179zm20.470544 0c-0.471066 0-0.852937 1.144889-0.852937 2.557179 0 1.412291 0.381871 2.557178 0.852937 2.557178 0.471068 2e-6 0.852942-1.144886 0.852942-2.557178 0-1.412291-0.381874-2.557181-0.852942-2.557179z" style="fill-opacity:.2"/>
  <path d="m15.996692 19.757213c-0.548727 0.0023-1.063688 1.147699-1.383804 3.077714-0.215613-1.225652-0.543624-1.940518-0.890701-1.941191-0.628136 0-1.137318 2.294835-1.137252 5.125457 6.8e-5 2.830188 0.509213 5.124344 1.137252 5.124344 0.256952-2.61e-4 0.506312-0.392642 0.707451-1.113215 0.266961 2.724464 0.883632 4.495982 1.567054 4.501696 0.31201-0.0041 0.617779-0.378849 0.884037-1.083248 0.319534 2.103231 0.837759 3.354121 1.390468 3.356297 0.34736-7.29e-4 0.686393-0.495982 0.971772-1.419547 0.468346 2.295969 1.281294 3.689361 2.155671 3.694813 0.874472-6.78e-4 1.688279-1.389919 2.157893-3.683712 0.285033 0.917618 0.623204 1.408873 0.969553 1.408446 0.553013 1.1e-5 1.071714-1.250199 1.391579-3.354076 0.265989 0.702774 0.571342 1.076642 0.882925 1.081027 0.685405-0.0054 1.303499-1.786841 1.569276-4.522783 0.200474 0.717784 0.448979 1.110051 0.705231 1.113215 0.628086 0 1.137249-2.289776 1.137249-5.114356 0-2.824582-0.509163-5.114358-1.137249-5.114358-0.346841 0.0031-0.674396 0.717934-0.889589 1.941191-0.320345-1.931393-0.8358-3.076888-1.384918-3.077714-0.497665 0.0027-0.970242 0.946466-1.293846 2.583815-0.287169-0.941498-0.629628-1.446908-0.980658-1.447292-0.620644 0.0039-1.191862 1.579619-1.491533 4.114349-0.459404-1.189062-1.038181-1.840507-1.635913-1.841302-0.597142 0.0036-1.175067 0.656595-1.633689 1.845742-0.299806-2.539691-0.872114-4.117732-1.493754-4.118789-0.3506 7.99e-4 -0.692631 0.505381-0.979547 1.445072-0.323952-1.637799-0.796984-2.580826-1.294958-2.581595zm-4.833323 3.40957c-0.471066-1e-6 -0.85294 1.144888-0.85294 2.557179 0 1.412292 0.381874 2.557179 0.85294 2.557178 0.471066 0 0.852939-1.144887 0.852939-2.557178 0-1.412289-0.381873-2.557179-0.852939-2.557179zm20.470544 0c-0.471066 0-0.852937 1.144889-0.852937 2.557179 0 1.412291 0.381871 2.557178 0.852937 2.557178 0.471068 2e-6 0.852942-1.144886 0.852942-2.557178 0-1.412291-0.381874-2.557181-0.852942-2.557179z" style="fill:#8d51c9"/>
  <path d="m15.997164 19.757213c-0.548727 0.0023-1.064106 1.147954-1.384222 3.077969-0.215613-1.225652-0.544456-1.940372-0.891533-1.941045-0.628136 0-1.137041 2.294529-1.136975 5.125151 4e-6 0.157783 0.0077 0.306379 0.01083 0.460526 0.05241-2.611242 0.533029-4.664625 1.126146-4.664625 0.347077 6.73e-4 0.67592 0.715393 0.891533 1.941045 0.320116-1.930015 0.835495-3.075669 1.384222-3.077969 0.497974 7.69e-4 0.970034 0.943666 1.293986 2.581465 0.286916-0.939691 0.629364-1.443742 0.979964-1.444541 0.62164 0.0011 1.194504 1.578059 1.49431 4.11775 0.458622-1.189147 1.036131-1.842102 1.633273-1.845702 0.597732 7.95e-4 1.175674 0.653042 1.635078 1.842104 0.299671-2.53473 0.871862-4.110252 1.492506-4.114152 0.35103 3.84e-4 0.692795 0.504842 0.979964 1.44634 0.323604-1.637349 0.796321-2.580564 1.293986-2.583264 0.549118 8.26e-4 1.065681 1.146576 1.386026 3.077969 0.215193-1.223257 0.542887-1.937945 0.889728-1.941045 0.593009 0 1.073601 2.048562 1.126147 4.653831 0.0031-0.154103 0.01083-0.30278 0.01083-0.460526 0-2.824582-0.508889-5.114357-1.136975-5.114357-0.346841 0.0031-0.674535 0.717788-0.889728 1.941045-0.320345-1.931393-0.836908-3.077143-1.386026-3.077969-0.497665 0.0027-0.970382 0.945915-1.293986 2.583264-0.287169-0.941498-0.628934-1.445956-0.979964-1.44634-0.620644 0.0039-1.192835 1.579422-1.492506 4.114152-0.459404-1.189062-1.037346-1.841309-1.635078-1.842104-0.597142 0.0036-1.174651 0.656555-1.633273 1.845702-0.299806-2.539691-0.87267-4.116693-1.49431-4.11775-0.3506 7.99e-4 -0.693048 0.50485-0.979964 1.444541-0.323952-1.637799-0.796012-2.580696-1.293986-2.581465zm-4.833046 3.408972c-0.471066-1e-6 -0.853634 1.145787-0.853634 2.558078 0 0.15802 0.0071 0.310431 0.01624 0.460526 0.07243-1.192147 0.418848-2.097553 0.837391-2.097552 0.418543 0 0.764962 0.905403 0.837391 2.097552 0.0092-0.150093 0.01444-0.302508 0.01444-0.460526 0-1.412289-0.380763-2.558078-0.851828-2.558078zm20.469159 0c-0.471066 0-0.851829 1.145788-0.851829 2.558078 0 0.158018 0.0053 0.310433 0.01444 0.460526 0.07243-1.192149 0.418848-2.097552 0.837392-2.097552 0.418544-1e-6 0.764961 0.905405 0.837391 2.097552 0.0092-0.150095 0.01624-0.302506 0.01624-0.460526 0-1.412291-0.382565-2.55808-0.853633-2.558078z" style="fill-opacity:.2;fill:#ffffff"/>
 </g>
</svg>
